{"title":"Siouxsie and The Banshees - Hong Kong Garden.mp4","uid":8390440,"size":117259842,"categoryP":"video","categoryS":"music_videos","magnet":"?xt=urn:btih:a7097188c1bec33cc969e56c0949ec157d18de13&amp;dn=Siouxsie+and+The+Banshees+-+Hong+Kong+Garden.mp4&amp;tr=udp%3A%2F%2Ftracker.openbittorrent.com%3A80&amp;tr=udp%3A%2F%2Fopen.demonii.com%3A1337&amp;tr=udp%3A%2F%2Ftracker.coppersurfer.tk%3A6969&amp;tr=udp%3A%2F%2Fexodus.desync.com%3A6969","seeders":1,"leechers":0,"uploader":"pepikJS","files":-1,"time":1366413465,"description":"Siouxsie and The Banshees - Hong Kong Garden.mp4\n\nDVDrip\n\n. . .\n\nGeneral\nFormat                                   : MPEG-4\nFormat profile                           : Base Media / Version 2\nCodec ID                                 : mp42\nFile size                                : 112 MiB\nDuration                                 : 2mn 58s\nOverall bit rate mode                    : Variable\nOverall bit rate                         : 5 248 Kbps\nEncoded date                             : UTC 2013-04-19 21:02:39\nTagged date                              : UTC 2013-04-19 21:02:39\nWriting application                      : mp4creator 1.6.1d\n\nVideo\nID                                       : 1\nFormat                                   : AVC\nFormat/Info                              : Advanced Video Codec\nFormat profile                           : &lt;a class=&quot;__cf_email__&quot; href=&quot;/cdn-cgi/l/email-protection&quot; data-cfemail=&quot;4109282629010d726f71&quot;&gt;[email&amp;#160;protected]&lt;/a&gt;&lt;script cf-hash='f9e31' type=&quot;text/javascript&quot;&gt;\n/* &lt;![CDATA[ */!function(){try{var t=&quot;currentScript&quot;in document?document.currentScript:function(){for(var t=document.getElementsByTagName(&quot;script&quot;),e=t.length;e--;)if(t[e].getAttribute(&quot;cf-hash&quot;))return t[e]}();if(t&amp;&amp;t.previousSibling){var e,r,n,i,c=t.previousSibling,a=c.getAttribute(&quot;data-cfemail&quot;);if(a){for(e=&quot;&quot;,r=parseInt(a.substr(0,2),16),n=2;a.length-n;n+=2)i=parseInt(a.substr(n,2),16)^r,e+=String.fromCharCode(i);e=document.createTextNode(e),c.parentNode.replaceChild(e,c)}}}catch(u){}}();/* ]]&gt; */&lt;/script&gt;\nFormat settings, CABAC                   : Yes\nFormat settings, ReFrames                : 4 frames\nCodec ID                                 : avc1\nCodec ID/Info                            : Advanced Video Coding\nDuration                                 : 2mn 58s\nBit rate mode                            : Variable\nBit rate                                 : 5 006 Kbps\nWidth                                    : 720 pixels\nHeight                                   : 576 pixels\nDisplay aspect ratio                     : 5:4\nFrame rate mode                          : Constant\nFrame rate                               : 25.000 fps\nStandard                                 : PAL\nColor space                              : YUV\nChroma subsampling                       : 4:2:0\nBit depth                                : 8 bits\nScan type                                : Progressive\nBits/(Pixel*Frame)                       : 0.483\nStream size                              : 107 MiB (95%)\n\nAudio\nID                                       : 2\nFormat                                   : AAC\nFormat/Info                              : Advanced Audio Codec\nFormat profile                           : LC\nCodec ID                                 : 40\nDuration                                 : 2mn 58s\nBit rate mode                            : Variable\nBit rate                                 : 238 Kbps\nMaximum bit rate                         : 284 Kbps\nChannel(s)                               : 2 channels\nChannel positions                        : Front: L R\nSampling rate                            : 48.0 KHz\nCompression mode                         : Lossy\nDelay relative to video                  : -80ms\nStream size                              : 5.06 MiB (5%)","torrent":{"xt":"urn:btih:a7097188c1bec33cc969e56c0949ec157d18de13","amp;dn":"Siouxsie+and+The+Banshees+-+Hong+Kong+Garden.mp4","amp;tr":["udp%3A%2F%2Ftracker.openbittorrent.com%3A80","udp%3A%2F%2Fopen.demonii.com%3A1337","udp%3A%2F%2Ftracker.coppersurfer.tk%3A6969","udp%3A%2F%2Fexodus.desync.com%3A6969"],"infoHash":"a7097188c1bec33cc969e56c0949ec157d18de13","infoHashBuffer":{"type":"Buffer","data":[167,9,113,136,193,190,195,60,201,105,229,108,9,73,236,21,125,24,222,19]},"announce":[],"urlList":[]}}